<svg width="282" height="39" viewBox="0 0 282 39" fill="none" xmlns="http://www.w3.org/2000/svg">
<path d="M51.45 28L56.05 10.5H61.8L66.4 28H63L62.05 24.15H55.8L54.85 28H51.45ZM56.575 21.1H61.275L59.15 12.575H58.7L56.575 21.1ZM67.9947 21.85V21.45C67.9947 20.15 68.2531 19.0417 68.7697 18.125C69.2864 17.1917 69.9697 16.4833 70.8197 16C71.6864 15.5 72.6281 15.25 73.6447 15.25C74.7781 15.25 75.6364 15.45 76.2197 15.85C76.8031 16.25 77.2281 16.6667 77.4947 17.1H77.9447V15.6H81.0447V30.2C81.0447 31.05 80.7947 31.725 80.2947 32.225C79.7947 32.7417 79.1281 33 78.2947 33H69.9947V30.25H77.1947C77.6614 30.25 77.8947 30 77.8947 29.5V26.275H77.4447C77.2781 26.5417 77.0447 26.8167 76.7447 27.1C76.4447 27.3667 76.0447 27.5917 75.5447 27.775C75.0447 27.9583 74.4114 28.05 73.6447 28.05C72.6281 28.05 71.6864 27.8083 70.8197 27.325C69.9697 26.825 69.2864 26.1167 68.7697 25.2C68.2531 24.2667 67.9947 23.15 67.9947 21.85ZM74.5447 25.3C75.5114 25.3 76.3197 24.9917 76.9697 24.375C77.6197 23.7583 77.9447 22.8917 77.9447 21.775V21.525C77.9447 20.3917 77.6197 19.525 76.9697 18.925C76.3364 18.3083 75.5281 18 74.5447 18C73.5781 18 72.7697 18.3083 72.1197 18.925C71.4697 19.525 71.1447 20.3917 71.1447 21.525V21.775C71.1447 22.8917 71.4697 23.7583 72.1197 24.375C72.7697 24.9917 73.5781 25.3 74.5447 25.3ZM90.1871 28.35C88.9538 28.35 87.8621 28.0917 86.9121 27.575C85.9788 27.0417 85.2454 26.3 84.7121 25.35C84.1954 24.3833 83.9371 23.25 83.9371 21.95V21.65C83.9371 20.35 84.1954 19.225 84.7121 18.275C85.2288 17.3083 85.9538 16.5667 86.8871 16.05C87.8204 15.5167 88.9038 15.25 90.1371 15.25C91.3538 15.25 92.4121 15.525 93.3121 16.075C94.2121 16.6083 94.9121 17.3583 95.4121 18.325C95.9121 19.275 96.1621 20.3833 96.1621 21.65V22.725H87.1371C87.1704 23.575 87.4871 24.2667 88.0871 24.8C88.6871 25.3333 89.4204 25.6 90.2871 25.6C91.1704 25.6 91.8204 25.4083 92.2371 25.025C92.6538 24.6417 92.9704 24.2167 93.1871 23.75L95.7621 25.1C95.5288 25.5333 95.1871 26.0083 94.7371 26.525C94.3038 27.025 93.7204 27.4583 92.9871 27.825C92.2538 28.175 91.3204 28.35 90.1871 28.35ZM87.1621 20.375H92.9621C92.8954 19.6583 92.6038 19.0833 92.0871 18.65C91.5871 18.2167 90.9288 18 90.1121 18C89.2621 18 88.5871 18.2167 88.0871 18.65C87.5871 19.0833 87.2788 19.6583 87.1621 20.375ZM105.213 28V10.5H116.463V13.5H108.513V17.675H115.763V20.675H108.513V25H116.613V28H105.213ZM124.306 28.35C122.69 28.35 121.365 28 120.331 27.3C119.298 26.6 118.673 25.6 118.456 24.3L121.356 23.55C121.473 24.1333 121.665 24.5917 121.931 24.925C122.215 25.2583 122.556 25.5 122.956 25.65C123.373 25.7833 123.823 25.85 124.306 25.85C125.04 25.85 125.581 25.725 125.931 25.475C126.281 25.2083 126.456 24.8833 126.456 24.5C126.456 24.1167 126.29 23.825 125.956 23.625C125.623 23.4083 125.09 23.2333 124.356 23.1L123.656 22.975C122.79 22.8083 121.998 22.5833 121.281 22.3C120.565 22 119.99 21.5917 119.556 21.075C119.123 20.5583 118.906 19.8917 118.906 19.075C118.906 17.8417 119.356 16.9 120.256 16.25C121.156 15.5833 122.34 15.25 123.806 15.25C125.19 15.25 126.34 15.5583 127.256 16.175C128.173 16.7917 128.773 17.6 129.056 18.6L126.131 19.5C125.998 18.8667 125.723 18.4167 125.306 18.15C124.906 17.8833 124.406 17.75 123.806 17.75C123.206 17.75 122.748 17.8583 122.431 18.075C122.115 18.275 121.956 18.5583 121.956 18.925C121.956 19.325 122.123 19.625 122.456 19.825C122.79 20.0083 123.24 20.15 123.806 20.25L124.506 20.375C125.44 20.5417 126.281 20.7667 127.031 21.05C127.798 21.3167 128.398 21.7083 128.831 22.225C129.281 22.725 129.506 23.4083 129.506 24.275C129.506 25.575 129.031 26.5833 128.081 27.3C127.148 28 125.89 28.35 124.306 28.35ZM136.772 28C135.956 28 135.289 27.75 134.772 27.25C134.272 26.7333 134.022 26.05 134.022 25.2V18.2H130.922V15.6H134.022V11.75H137.172V15.6H140.572V18.2H137.172V24.65C137.172 25.15 137.406 25.4 137.872 25.4H140.272V28H136.772ZM143.424 28V15.6H146.574V28H143.424ZM144.999 14.15C144.432 14.15 143.949 13.9667 143.549 13.6C143.165 13.2333 142.974 12.75 142.974 12.15C142.974 11.55 143.165 11.0667 143.549 10.7C143.949 10.3333 144.432 10.15 144.999 10.15C145.582 10.15 146.065 10.3333 146.449 10.7C146.832 11.0667 147.024 11.55 147.024 12.15C147.024 12.75 146.832 13.2333 146.449 13.6C146.065 13.9667 145.582 14.15 144.999 14.15ZM150.064 28V15.6H153.164V16.95H153.614C153.831 16.5333 154.189 16.175 154.689 15.875C155.189 15.5583 155.848 15.4 156.664 15.4C157.548 15.4 158.256 15.575 158.789 15.925C159.323 16.2583 159.731 16.7 160.014 17.25H160.464C160.748 16.7167 161.148 16.275 161.664 15.925C162.181 15.575 162.914 15.4 163.864 15.4C164.631 15.4 165.323 15.5667 165.939 15.9C166.573 16.2167 167.073 16.7083 167.439 17.375C167.823 18.025 168.014 18.85 168.014 19.85V28H164.864V20.075C164.864 19.3917 164.689 18.8833 164.339 18.55C163.989 18.2 163.498 18.025 162.864 18.025C162.148 18.025 161.589 18.2583 161.189 18.725C160.806 19.175 160.614 19.825 160.614 20.675V28H157.464V20.075C157.464 19.3917 157.289 18.8833 156.939 18.55C156.589 18.2 156.098 18.025 155.464 18.025C154.748 18.025 154.189 18.2583 153.789 18.725C153.406 19.175 153.214 19.825 153.214 20.675V28H150.064ZM175.252 28.35C174.369 28.35 173.577 28.2 172.877 27.9C172.177 27.5833 171.619 27.1333 171.202 26.55C170.802 25.95 170.602 25.225 170.602 24.375C170.602 23.525 170.802 22.8167 171.202 22.25C171.619 21.6667 172.186 21.2333 172.902 20.95C173.636 20.65 174.469 20.5 175.402 20.5H178.802V19.8C178.802 19.2167 178.619 18.7417 178.252 18.375C177.886 17.9917 177.302 17.8 176.502 17.8C175.719 17.8 175.136 17.9833 174.752 18.35C174.369 18.7 174.119 19.1583 174.002 19.725L171.102 18.75C171.302 18.1167 171.619 17.5417 172.052 17.025C172.502 16.4917 173.094 16.0667 173.827 15.75C174.577 15.4167 175.486 15.25 176.552 15.25C178.186 15.25 179.477 15.6583 180.427 16.475C181.377 17.2917 181.852 18.475 181.852 20.025V24.65C181.852 25.15 182.086 25.4 182.552 25.4H183.552V28H181.452C180.836 28 180.327 27.85 179.927 27.55C179.527 27.25 179.327 26.85 179.327 26.35V26.325H178.852C178.786 26.525 178.636 26.7917 178.402 27.125C178.169 27.4417 177.802 27.725 177.302 27.975C176.802 28.225 176.119 28.35 175.252 28.35ZM175.802 25.8C176.686 25.8 177.402 25.5583 177.952 25.075C178.519 24.575 178.802 23.9167 178.802 23.1V22.85H175.627C175.044 22.85 174.586 22.975 174.252 23.225C173.919 23.475 173.752 23.825 173.752 24.275C173.752 24.725 173.927 25.0917 174.277 25.375C174.627 25.6583 175.136 25.8 175.802 25.8ZM189.702 28C188.885 28 188.219 27.75 187.702 27.25C187.202 26.7333 186.952 26.05 186.952 25.2V18.2H183.852V15.6H186.952V11.75H190.102V15.6H193.502V18.2H190.102V24.65C190.102 25.15 190.335 25.4 190.802 25.4H193.202V28H189.702ZM201.814 28.35C200.581 28.35 199.472 28.1 198.489 27.6C197.506 27.1 196.731 26.375 196.164 25.425C195.597 24.475 195.314 23.3333 195.314 22V21.6C195.314 20.2667 195.597 19.125 196.164 18.175C196.731 17.225 197.506 16.5 198.489 16C199.472 15.5 200.581 15.25 201.814 15.25C203.047 15.25 204.156 15.5 205.139 16C206.122 16.5 206.897 17.225 207.464 18.175C208.031 19.125 208.314 20.2667 208.314 21.6V22C208.314 23.3333 208.031 24.475 207.464 25.425C206.897 26.375 206.122 27.1 205.139 27.6C204.156 28.1 203.047 28.35 201.814 28.35ZM201.814 25.55C202.781 25.55 203.581 25.2417 204.214 24.625C204.847 23.9917 205.164 23.0917 205.164 21.925V21.675C205.164 20.5083 204.847 19.6167 204.214 19C203.597 18.3667 202.797 18.05 201.814 18.05C200.847 18.05 200.047 18.3667 199.414 19C198.781 19.6167 198.464 20.5083 198.464 21.675V21.925C198.464 23.0917 198.781 23.9917 199.414 24.625C200.047 25.2417 200.847 25.55 201.814 25.55ZM211.222 28V15.6H214.322V17H214.772C214.955 16.5 215.255 16.1333 215.672 15.9C216.105 15.6667 216.605 15.55 217.172 15.55H218.672V18.35H217.122C216.322 18.35 215.663 18.5667 215.147 19C214.63 19.4167 214.372 20.0667 214.372 20.95V28H211.222Z" fill="black"/>
<circle cx="19.5" cy="19.5" r="19.5" fill="#F2501A"/>
<path d="M8.324 27L11.636 14.4H15.776L19.088 27H16.64L15.956 24.228H11.456L10.772 27H8.324ZM12.014 22.032H15.398L13.868 15.894H13.544L12.014 22.032ZM20.5962 27V14.4H28.6962V16.56H22.9722V19.566H28.1922V21.726H22.9722V24.84H28.8042V27H20.5962Z" fill="white"/>
</svg>
